<?xml version="1.0" encoding="utf-8"?>
<!DOCTYPE svg PUBLIC "-//W3C//DTD SVG 1.1//EN" "http://www.w3.org/Graphics/SVG/1.1/DTD/svg11.dtd">
<svg style="width:308px;height:308px;" version="1.1" id="图形" xmlns="http://www.w3.org/2000/svg" xmlns:xlink="http://www.w3.org/1999/xlink" x="0px" y="0px" width="1025px" height="1024px" viewBox="0 0 1025 1024" enable-background="new 0 0 1025 1024" xml:space="preserve">
  <path class="svgpath" data-index="path_0" fill="#272636" d="M1004.871 482.388 535.176 41.278c-13.252-12.371-34.622-12.371-47.824 0L11.59 488.073c-1.685 1.44-2.935 3.19-4.25 5-10.311 12.44-9.935 30.222 2.25 41.722 0.94 0.846 2.065 1.189 3.065 1.908 5.31 4.342 11.81 7.311 19.25 7.311l1.185 0c0.25 0 0.5 0 0.69 0l95.063 0 0 415.018 0 2c0 17.121 13.875 31 30.941 31l2 0 158.881 0 63.937 0 255.755 0 63.941 0 158.887 0 2 0c17.061 0 30.939-13.879 30.939-31l0-2L896.124 544.016l92.504 0c0.18 0 0.439 0 0.68 0l3.76 0c17.121 0 30.932-13.875 30.932-31.002l0-2C1024.002 498.074 1016.328 491.881 1004.871 482.388zM384.604 928.031 384.604 717.084c0-70.688 57.317-128.006 127.881-128.006 70.693 0 127.875 57.316 127.875 128.006l0 210.947L384.604 928.031zM865.188 480.013l-2 0c-17.121 0-31.002 13.875-31.002 31.001l0 2 0 415.018L704.301 928.032 704.301 717.084c0-106.033-85.873-192.01-191.816-192.01-105.875 0-191.818 85.977-191.818 192.01l0 210.947-127.88 0L192.787 513.014l0-2c0-17.125-13.875-31.001-31.001-31.001l-2 0L115.66 480.013l395.633-371.422 395.455 371.423L865.188 480.013 865.188 480.013z" />

</svg>
