<?xml version="1.0" encoding="utf-8"?>
<!DOCTYPE svg PUBLIC "-//W3C//DTD SVG 1.1//EN" "http://www.w3.org/Graphics/SVG/1.1/DTD/svg11.dtd">
<svg style="width:308px;height:308px;" version="1.1" id="图形" xmlns="http://www.w3.org/2000/svg" xmlns:xlink="http://www.w3.org/1999/xlink" x="0px" y="0px" width="1024px" height="1024px" viewBox="0 0 1024 1024" enable-background="new 0 0 1024 1024" xml:space="preserve">
  <path class="svgpath" data-index="path_0" fill="#272636" d="M979.740613 847.209327c-23.360594-76.893455-232.883288-183.432434-263.727228-196.829893-37.281796-16.22008-53.224012-26.582021-59.355018-31.21276-2.269892-10.390926-3.925083-22.655938-4.905605-35.686575 13.059623-8.431883 26.428096-20.41803 37.404736-38.414243 3.493294-5.79617 6.682737-10.823715 9.74924-15.576394 9.81021-15.450456 18.578928-29.217734 28.021318-51.690761 11.098581-6.653751 20.724881-16.523932 27.225706-28.482093 22.442042-41.112926 38.628139-112.15024 26.794917-145.628893-3.922085-11.252506-10.974641-20.389045-20.23412-26.858885-3.188443-115.920399-55.368965-194.681941-154.336641-233.895794-18.455988-8.094048-49.296929-20.266105-91.23945-31.883432-23.300623-6.438856-39.672629-8.830688-56.904215-10.393925-3.617234-0.337835-7.295438-0.12294-10.790731 0.551731-19.315569 3.862114-36.729066 18.487973-44.209414 37.219826-0.18391 0.397806-0.36882 0.766626-0.488761 1.103461-31.70252 7.541318-60.951239 26.090261-70.823419 60.827299-0.797611 2.421817-1.348342 4.842635-1.717162 7.326423-41.756611 45.774649-61.683881 98.293006-63.767864 167.397264-10.54785 6.530811-18.397017 16.250065-22.750891 28.420123-11.834222 33.448668 4.353874 104.485982 26.795916 145.598907 7.050557 12.938682 17.660377 23.300623 29.862419 29.800449 8.644779 19.529464 17.476467 32.344207 26.182216 44.823114 4.107994 5.977082 8.522838 12.354967 13.243533 20.019225 11.774251 19.315569 24.834874 31.823461 37.465706 40.439254-1.102462 9.013599-2.451803 18.915764-3.740174 28.205228l-1.840102 14.104113c-5.702216 6.806676-25.447575 18.854794-42.246372 25.633484C326.770443 653.167074 72.545575 756.057834 46.241419 853.003498c-4.476814 16.370007-20.175149 65.324104-20.175149 82.919512 0 52.18352 36.913976 88.076994 109.759407 88.076994L889.295775 1024.000004c32.866952 0 109.821377-9.435393 109.821377-85.531237C999.117152 919.309123 979.740613 847.209327 979.740613 847.209327zM844.16781 961.03175 184.879725 961.03175c-63.708892 0-89.585258-6.493829-95.104563-36.817023-1.961042-10.79273 4.906604-35.069876 17.660377-57.632859 37.894497-67.082245 283.164737-181.484385 309.040103-189.732358 6.867647-15.697335 23.547502-98.235034 24.528024-106.145172-11.037611-7.542317-27.960348-19.197626-42.186401-32.962905-32.376191-31.392672-61.930761-100.224063-63.770862-101.328524-27.468588-16.677857-44.455294-77.904961-37.280797-108.072231 4.904605-20.60394 13.367473-19.867299 22.565982-25.6005 1.838102-60.460479 5.639246-101.268553 42.186401-141.308003 0.30685-2.175938 0.243881-5.733201 0.979522-7.849167 8.584808-30.41215 27.224707-49.543809 54.942173-56.134591 0.12294-0.30785 0.243881-0.6147 0.43079-0.981521 6.558797-16.372006 21.765372-29.187748 38.691108-32.562101 3.064504-0.581716 6.253946-0.765626 9.44139-0.489761 15.083635 1.380326 29.43063 3.464308 49.788689 9.107553 36.670095 10.177031 63.647922 20.815836 79.838017 27.899377 86.578726 34.306249 104.482983 103.781326 107.302607 205.198806 8.096047 5.671231 15.207574 4.875619 18.641898 14.717814 10.361941 29.277704-14.717814 103.994222-32.377191 120.672079-16.312035 15.3595-18.640898 55.921695-61.806821 93.202491-3.683202 3.220428-17.048676 18.149138-28.454107 25.509544 0.857581 11.401433 7.479348 101.41748 9.443389 110.523034 5.395366 4.049023 50.157509 13.643338 82.776582 27.806423 26.979826 11.743266 210.319306 106.784859 236.44355 172.672688 0 0 11.648312 36.72007 11.648312 53.490882C940.250895 956.591918 872.925768 961.03175 844.16781 961.03175z" />

</svg>
