<?xml version="1.0" encoding="utf-8"?>
<!DOCTYPE svg PUBLIC "-//W3C//DTD SVG 1.1//EN" "http://www.w3.org/Graphics/SVG/1.1/DTD/svg11.dtd">
<svg style="width:308px;height:308px;" version="1.1" id="图形" xmlns="http://www.w3.org/2000/svg" xmlns:xlink="http://www.w3.org/1999/xlink" x="0px" y="0px" width="1025px" height="1024px" viewBox="0 0 1025 1024" enable-background="new 0 0 1025 1024" xml:space="preserve">
  <path class="svgpath" data-index="path_0" fill="#272636" d="M512.012 24C231.892 24 2.242 211.965 0.023 442.99-1.29 585.174 54.208 687.61 179.738 774.389c2.781 71.437-101.779 204.935-101.779 204.935 161.996 32.688 346.305-117.029 359.742-126.779 0 0 71.999 8.781 96.124 9.719 277.307 10.688 490.178-187.715 490.178-418.928C1024 212.09 794.318 24 512.012 24zM531.949 801.951c-33.125 0.469-121-13-121-13-11.75 8.438-123.998 100.998-232.994 135.996 0 0 65.998-59.998 62.998-176.996C126.956 680.953 62.896 574.362 64.021 451.116 65.958 250.901 266.923 87.998 512.012 87.998c247.056 0 446.927 163.027 447.99 363.43C960.939 631.955 774.693 798.514 531.949 801.951z" />

</svg>
