<?xml version="1.0" encoding="utf-8"?>
<!DOCTYPE svg PUBLIC "-//W3C//DTD SVG 1.1//EN" "http://www.w3.org/Graphics/SVG/1.1/DTD/svg11.dtd">
<svg style="width:308px;height:308px;" version="1.1" id="图形" xmlns="http://www.w3.org/2000/svg" xmlns:xlink="http://www.w3.org/1999/xlink" x="0px" y="0px" width="1024px" height="1024px" viewBox="0 0 1024 1024" enable-background="new 0 0 1024 1024" xml:space="preserve">
  <path class="svgpath" data-index="path_0" fill="#272636" d="M929.678 293.969c-17.75 0-32 14.312-32 32l0 32 0 224 0 345.979c0 25.219-15.812 32.055-34.208 32.055L159.992 960.003c-22.255 0-30.313-8.575-30.313-32.055L129.679 96.643c0-20.87 10.313-32.643 29.444-32.643l317.994 0 224 0 32 0c17.625 0 32-14.312 32-32s-14.375-32-32-32l-32 0-224 0-346.69 0C95.052 0 65.678 23.597 65.678 66.664L65.678 960.12c-1.338 17.454 23.102 63.724 63.878 63.88l766.957 0c35.312 0 65.165-29.405 65.165-64.749L961.678 581.969l0-224 0-32C961.678 308.281 947.303 293.969 929.678 293.969z" />
<path class="svgpath" data-index="path_1" fill="#272636" d="M342.963 617.823c0.016-0.049 0.028-0.244 0.028-0.666L342.963 617.823z" />
<path class="svgpath" data-index="path_2" fill="#272636" d="M305.367 553.907c-11.125 11.188-14.875 19.5-17.625 29-3.014 10.153-2.449 24.688-2.204 23.924l-4.046 105.326 112.625-2.938c0.625 0.062 18.125-2.5 18.75-2.562 8.125-1.375 17.375-6.125 28.25-17l497-497c25-24.938 25.5-65.938 0.5-90.938l-45.25-45.25c-25-25-66-24.5-91 0.438L305.367 553.907zM395.491 644.782c-3.625 3.625-6.625 5.188-9.375 5.625-0.25 0.062-6.062 0.875-6.25 0.875l-38.375 1.75 1.472-35.209c-0.086 0.271-0.29-4.529 0.716-7.916 0.938-3.188 2.188-5.938 5.875-9.625l45.966-45.972 45.221 45.221L395.491 644.782zM832.742 117.032c8.375-8.312 22.062-8.5 30.375-0.188l15.125 15.062c8.25 8.312 8.125 22.062-0.25 30.375l-392 392-45.224-45.224L832.742 117.032z" />

</svg>
