<?xml version="1.0" encoding="utf-8"?>
<!DOCTYPE svg PUBLIC "-//W3C//DTD SVG 1.1//EN" "http://www.w3.org/Graphics/SVG/1.1/DTD/svg11.dtd">
<svg style="width:308px;height:308px;" version="1.1" id="图形" xmlns="http://www.w3.org/2000/svg" xmlns:xlink="http://www.w3.org/1999/xlink" x="0px" y="0px" width="1024px" height="1024px" viewBox="0 0 1024 1024" enable-background="new 0 0 1024 1024" xml:space="preserve">
  <path class="svgpath" data-index="path_0" fill="#272636" d="M1014.625 969.375l-173.75-173.719C914.812 711.25 960 601 960 480.031 960 214.937 744.812 0 480 0 215.188 0 0 214.938 0 480.031 0 745.031 215.188 960 480 960c120.875 0 231.125-45.156 315.625-119.094l173.75 173.719c12.5 12.5 32.75 12.5 45.25 0S1027.125 981.875 1014.625 969.375zM480 896C250.5 896 64 709.688 64 480.031 64 250.281 250.5 64 480 64c229.5 0 416 186.281 416 416.031C896 709.688 709.5 896 480 896z" />

</svg>
