<?xml version="1.0" encoding="utf-8"?>
<!DOCTYPE svg PUBLIC "-//W3C//DTD SVG 1.1//EN" "http://www.w3.org/Graphics/SVG/1.1/DTD/svg11.dtd">
<svg style="width:308px;height:308px;" version="1.1" id="图形" xmlns="http://www.w3.org/2000/svg" xmlns:xlink="http://www.w3.org/1999/xlink" x="0px" y="0px" width="1024px" height="1024px" viewBox="0 0 1024 1024" enable-background="new 0 0 1024 1024" xml:space="preserve">
  <path class="svgpath" data-index="path_0" fill="#272636" d="M464 784q0-20 14.016-34.016t34.016-14.016q10.016 0 19.008 4t15.008 10.496 10.016 15.488 4 18.016q0 12.992-6.496 24.512t-17.504 17.504-24 6.016q-20 0-34.016-14.016t-14.016-34.016zM512 960q-184.992 0-316.512-131.488t-131.488-316.512 131.488-316.512 316.512-131.488 316.512 131.488 131.488 316.512-131.488 316.512-316.512 131.488zM512 128q-104 0-192.512 51.488t-140 140-51.488 192.512 51.488 192.512 140 140 192.512 51.488 192.512-51.488 140-140 51.488-192.512-51.488-192.512-140-140-192.512-51.488zM512 674.016q-8.992 0-16-4.512t-11.488-12-4.512-15.488l0-54.016q0-24.992 12.992-50.016t25.504-39.488 36.512-38.496q18.016-18.016 26.496-27.008t17.504-23.008 8.992-24q0-12.992-3.488-25.504t-9.504-23.008-15.008-19.488-19.488-15.488-23.008-10.016-25.504-3.488q-40 0-68 27.488t-28 67.488q0 12.992-9.504 22.496t-22.496 9.504q-7.008 0-12.512-2.496t-10.016-7.008-7.008-10.496-2.496-12q0-32 12.512-61.504t34.016-51.008 51.488-34.016 62.016-12.512q66.016 0 112.992 47.008t47.008 114.016q0 22.016-12 45.504t-24 36.992-35.008 36.512q-19.008 19.008-28.512 28.992t-19.008 26.016-9.504 28l0 54.016q0 12.992-9.504 22.496t-22.496 9.504z" />

</svg>
