<?xml version="1.0" encoding="utf-8"?>
<!DOCTYPE svg PUBLIC "-//W3C//DTD SVG 1.1//EN" "http://www.w3.org/Graphics/SVG/1.1/DTD/svg11.dtd">
<svg style="width:308px;height:308px;" version="1.1" id="图形" xmlns="http://www.w3.org/2000/svg" xmlns:xlink="http://www.w3.org/1999/xlink" x="0px" y="0px" width="1024px" height="1024px" viewBox="0 0 1024 1024" enable-background="new 0 0 1024 1024" xml:space="preserve">
  <path class="svgpath" data-index="path_0" fill="#272636" d="M302.786071 721.212906c-10.194176-10.194176-9.943466-26.976398 0.559748-37.479613l380.388497-380.388497c10.503215-10.503215 27.285436-10.753925 37.479613-0.559748 10.194176 10.194176 9.943466 26.976398-0.559748 37.479613L340.265684 720.65418C329.762469 731.157395 312.981271 731.408105 302.786071 721.212906z" />
<path class="svgpath" data-index="path_1" fill="#272636" d="M302.786071 302.786071c10.194176-10.194176 26.976398-9.943466 37.479613 0.559748l380.388497 380.388497c10.503215 10.503215 10.753925 27.285436 0.559748 37.479613s-26.976398 9.94449-37.479613-0.559748L303.34582 340.265684C292.842605 329.762469 292.591895 312.981271 302.786071 302.786071z" />

</svg>
