<?xml version="1.0" encoding="utf-8"?>
<!DOCTYPE svg PUBLIC "-//W3C//DTD SVG 1.1//EN" "http://www.w3.org/Graphics/SVG/1.1/DTD/svg11.dtd">
<svg style="width:308px;height:308px;" version="1.1" id="图形" xmlns="http://www.w3.org/2000/svg" xmlns:xlink="http://www.w3.org/1999/xlink" x="0px" y="0px" width="1024px" height="1024px" viewBox="0 0 1024 1024" enable-background="new 0 0 1024 1024" xml:space="preserve">
  <path class="svgpath" data-index="path_0" fill="#272636" d="M512 960q-184.992 0-316.512-131.488t-131.488-316.512 131.488-316.512 316.512-131.488 316.512 131.488 131.488 316.512-131.488 316.512-316.512 131.488zM512 128q-104 0-192.512 51.488t-140 140-51.488 192.512 51.488 192.512 140 140 192.512 51.488 192.512-51.488 140-140 51.488-192.512-51.488-192.512-140-140-192.512-51.488zM556.992 512.992l138.016-136q10.016-10.016 10.016-23.008t-9.504-22.496-22.496-9.504-23.008 8.992l-138.016 136.992-136.992-136.992q-6.016-6.016-14.016-8t-16.512 0-14.496 8q-8.992 8.992-8.992 22.496t8.992 22.496l136 136.992-136.992 136q-8.992 8.992-9.504 22.496t9.504 22.496 22.016 10.016q7.008 0 12.512-2.496t10.496-7.488l138.016-136 138.016 140q10.016 8.992 23.008 8.992t22.496-9.504 9.504-22.496-8.992-23.008z" />

</svg>
