<?xml version="1.0" encoding="utf-8"?>
<!DOCTYPE svg PUBLIC "-//W3C//DTD SVG 1.1//EN" "http://www.w3.org/Graphics/SVG/1.1/DTD/svg11.dtd">
<svg style="width:308px;height:308px;" version="1.1" id="图形" xmlns="http://www.w3.org/2000/svg" xmlns:xlink="http://www.w3.org/1999/xlink" x="0px" y="0px" width="1024px" height="1024px" viewBox="0 0 1024 1024" enable-background="new 0 0 1024 1024" xml:space="preserve">
  <path class="svgpath" data-index="path_0" fill="#272636" d="M512 64q-184.992 0-316.512 131.488t-131.488 316.512 131.488 316.512 316.512 131.488 316.512-131.488 131.488-316.512-131.488-316.512-316.512-131.488zM695.008 650.016q6.016 6.016 8 14.496t0 16.512-8 14.016q-10.016 10.016-23.008 10.016t-23.008-10.016l-136.992-138.016-138.016 136.992q-10.016 8.992-23.008 8.992-6.016 0-12-2.496t-10.016-7.488q-4-3.008-6.016-6.496t-3.008-7.488-0.992-8 0.992-8 3.488-8 5.504-7.008l138.016-136-138.016-138.016q-8.992-8.992-8.992-22.496t9.504-23.008 22.496-9.504 23.008 10.016l136.992 138.016 138.016-136.992q10.016-8.992 23.008-8.992t22.496 9.504 9.504 22.496-10.016 23.008l-138.016 136z" />

</svg>
