<?xml version="1.0" encoding="utf-8"?>
<!DOCTYPE svg PUBLIC "-//W3C//DTD SVG 1.1//EN" "http://www.w3.org/Graphics/SVG/1.1/DTD/svg11.dtd">
<svg style="width:308px;height:308px;" version="1.1" id="图形" xmlns="http://www.w3.org/2000/svg" xmlns:xlink="http://www.w3.org/1999/xlink" x="0px" y="0px" width="1024px" height="1024px" viewBox="0 0 1024 1024" enable-background="new 0 0 1024 1024" xml:space="preserve">
  <path class="svgpath" data-index="path_0" fill="#272636" d="M512 66.016q-72.992 0-140.992 22.496t-122.496 64-96 96-64 122.496-22.496 140.992q0 91.008 35.488 173.504t95.008 142.016 142.016 95.008 173.504 35.488 173.504-35.488 142.016-95.008 95.008-142.016 35.488-173.504-35.488-173.504-95.008-142.016-142.016-95.008-173.504-35.488zM544 736q0 12.992-9.504 22.496t-22.496 9.504-22.496-9.504-9.504-22.496l0-288q0-12.992 9.504-22.496t22.496-9.504 22.496 9.504 9.504 22.496l0 288zM512 352q-20 0-34.016-14.016t-14.016-34.016 14.016-34.016 34.016-14.016 34.016 14.016 14.016 34.016-14.016 34.016-34.016 14.016z" />

</svg>
