<?xml version="1.0" encoding="utf-8"?>
<!DOCTYPE svg PUBLIC "-//W3C//DTD SVG 1.1//EN" "http://www.w3.org/Graphics/SVG/1.1/DTD/svg11.dtd">
<svg style="width:308px;height:308px;" version="1.1" id="图形" xmlns="http://www.w3.org/2000/svg" xmlns:xlink="http://www.w3.org/1999/xlink" x="0px" y="0px" width="1024px" height="1024px" viewBox="0 0 1024 1024" enable-background="new 0 0 1024 1024" xml:space="preserve">
  <path class="svgpath" data-index="path_0" fill="#272636" d="M512 958.016q-91.008 0-173.504-35.488t-142.016-95.008-95.008-142.016-35.488-173.504q0-60.992 16-118.496t44.992-106.496 70.016-90.016 90.016-70.016 106.496-44.992 118.496-16q91.008 0 173.504 35.488t142.016 95.008 95.008 142.016 35.488 173.504q0 60.992-16 118.496t-44.992 106.496-70.016 90.016-90.016 70.016-106.496 44.992-118.496 16zM512 130.016q-104 0-192 51.008t-139.008 139.008-51.008 192 51.008 192 139.008 139.008 192 51.008 192-51.008 139.008-139.008 51.008-192-51.008-192-139.008-139.008-192-51.008zM464 304q0-20 14.016-34.016t34.016-14.016 34.016 14.016 14.016 34.016-14.016 34.016-34.016 14.016-34.016-14.016-14.016-34.016zM512 768q-12.992 0-22.496-9.504t-9.504-22.496l0-288q0-12.992 9.504-22.496t22.496-9.504 22.496 9.504 9.504 22.496l0 288q0 12.992-9.504 22.496t-22.496 9.504z" />

</svg>
