<?xml version="1.0" encoding="utf-8"?>
<!DOCTYPE svg PUBLIC "-//W3C//DTD SVG 1.1//EN" "http://www.w3.org/Graphics/SVG/1.1/DTD/svg11.dtd">
<svg style="width:308px;height:308px;" version="1.1" id="图形" xmlns="http://www.w3.org/2000/svg" xmlns:xlink="http://www.w3.org/1999/xlink" x="0px" y="0px" width="1024px" height="1024px" viewBox="0 0 1024 1024" enable-background="new 0 0 1024 1024" xml:space="preserve">
  <path class="svgpath" data-index="path_0" fill="#272636" d="M512.7936 51.1488c-254.08 0-460.7744 206.6944-460.7744 460.7744s206.6944 460.7744 460.7744 460.7744c254.1056 0 460.8256-206.6944 460.8256-460.7744S766.8992 51.1488 512.7936 51.1488zM682.112 353.1264c25.3952 0 45.952 20.5824 45.952 45.952s-20.5824 45.952-45.952 45.952c-25.3952 0-45.952-20.5824-45.952-45.952S656.7168 353.1264 682.112 353.1264zM343.5264 353.1264c25.3952 0 45.952 20.5824 45.952 45.952s-20.5824 45.952-45.952 45.952-45.952-20.5824-45.952-45.952S318.1312 353.1264 343.5264 353.1264zM743.4752 641.664c-34.7904 97.024-127.4368 162.2016-230.528 162.2016-103.5264 0-196.2752-65.536-230.8352-163.0976-3.5328-10.0096 1.6896-20.9664 11.6992-24.5248 10.0096-3.5328 20.9664 1.6896 24.5248 11.6992 29.1072 82.2528 107.3408 137.5232 194.6368 137.5232 86.9376 0 165.0432-54.9632 194.3808-136.7552 3.584-10.0096 14.5664-15.1808 24.5504-11.5968C741.8624 620.6976 747.0592 631.68 743.4752 641.664z" />

</svg>
