<?xml version="1.0" encoding="utf-8"?>
<!DOCTYPE svg PUBLIC "-//W3C//DTD SVG 1.1//EN" "http://www.w3.org/Graphics/SVG/1.1/DTD/svg11.dtd">
<svg style="width:308px;height:308px;" version="1.1" id="图形" xmlns="http://www.w3.org/2000/svg" xmlns:xlink="http://www.w3.org/1999/xlink" x="0px" y="0px" width="1024px" height="1024px" viewBox="0 0 1024 1024" enable-background="new 0 0 1024 1024" xml:space="preserve">
  <path class="svgpath" data-index="path_0" fill="#272636" d="M512 928q-4.992 0-10.016-1.504t-8.992-4.512-7.008-7.008l-64.992-91.008q-156-28-256.512-133.504t-100.512-242.496q0-159.008 131.488-271.488t316.512-112.512 316.512 112.512 131.488 271.488q0 136.992-100.512 242.496t-256.512 133.504l-64.992 91.008q-10.016 12.992-26.016 12.992zM512 128q-159.008 0-271.488 94.016t-112.512 226.016q0 76 40.512 143.488t112.992 112.512 162.496 59.008q12.992 2.016 20.992 12.992l47.008 64.992 47.008-64.992q7.008-11.008 20.992-12.992 136.992-20.992 226.496-110.016t89.504-204.992q0-132-112.512-226.016t-271.488-94.016zM288.512 512q-26.496 0-45.504-19.008t-19.008-44.992 19.008-44.992 45.504-19.008 44.992 19.008 18.496 44.992-18.496 44.992-44.992 19.008zM288 448l0 0zM736 512q-7.008 0-14.496-1.504t-13.504-4.992-12-7.488-10.016-10.016-7.488-12-4.992-13.504-1.504-14.496q0-26.016 19.008-44.992t44.992-19.008q10.016 0 20 3.008t18.016 8.992 14.016 14.016 8.992 18.016 3.008 20q0 26.016-18.496 44.992t-45.504 19.008zM736 448l0 0zM512.512 512q-26.496 0-45.504-19.008t-19.008-44.992 19.008-44.992 44.992-19.008q10.016 0 20 3.008t18.016 8.992 14.016 14.016 8.992 18.016 3.008 20q0 26.016-18.496 44.992t-44.992 19.008zM512 448l0 0z" />

</svg>
