<?xml version="1.0" encoding="utf-8"?>
<!DOCTYPE svg PUBLIC "-//W3C//DTD SVG 1.1//EN" "http://www.w3.org/Graphics/SVG/1.1/DTD/svg11.dtd">
<svg style="width:308px;height:308px;" version="1.1" id="图形" xmlns="http://www.w3.org/2000/svg" xmlns:xlink="http://www.w3.org/1999/xlink" x="0px" y="0px" width="1024px" height="1024px" viewBox="0 0 1024 1024" enable-background="new 0 0 1024 1024" xml:space="preserve">
  <path class="svgpath" data-index="path_0" fill="#272636" d="M512 960q-184.992 0-316.512-131.488t-131.488-316.512 131.488-316.512 316.512-131.488 316.512 131.488 131.488 316.512-131.488 316.512-316.512 131.488zM512 128q-104 0-192.512 51.488t-140 140-51.488 192.512 51.488 192.512 140 140 192.512 51.488 192.512-51.488 140-140 51.488-192.512-51.488-192.512-140-140-192.512-51.488zM727.008 393.504q-8.992-9.504-22.496-9.504t-22.496 8.992l-234.016 236-103.008-106.016q-8.992-8.992-22.496-9.504t-23.008 8.992-9.504 22.496 8.992 23.008l126.016 128.992 0.992 0 0 0.992q0.992 0.992 4.992 4l2.016 0 3.008 3.008q6.016 2.016 12 2.016 7.008 0 12-2.016 0.992-0.992 2.016-1.504t1.504-0.992 1.504-0.512q4-2.016 6.016-4l0-0.992 256-259.008q10.016-8.992 9.504-22.016t-9.504-22.496z" />

</svg>
