<?xml version="1.0" encoding="utf-8"?>
<!DOCTYPE svg PUBLIC "-//W3C//DTD SVG 1.1//EN" "http://www.w3.org/Graphics/SVG/1.1/DTD/svg11.dtd">
<svg style="width:308px;height:308px;" version="1.1" id="图形" xmlns="http://www.w3.org/2000/svg" xmlns:xlink="http://www.w3.org/1999/xlink" x="0px" y="0px" width="1025px" height="1024px" viewBox="0 0 1025 1024" enable-background="new 0 0 1025 1024" xml:space="preserve">
  <path class="svgpath" data-index="path_0" fill="#272636" d="M1023.244 831.117c-3.5-23.844-17.812-44.155-43.625-62.124L762.686 618.435c-14.562-10.062-31.436-15.312-48.936-15.312-27.312 0-53 13.156-68.75 35.436l-62.812 94.248c0 0-76.561-17.249-155.435-97.217-106-107.404-130.624-180.747-134.562-192.372l86.937-65.375c36.312-27.843 43.625-81.624 16.125-120.155L239.789 42.566C203.258-7.807 154.32-13.869 107.978 26.505c-25.719 22.342-67.906 73.623-84.25 106.435-26.906 54-31.562 159.154-10.718 258.372 29.156 138.937 107.686 271.995 233.372 395.4 199.872 196.155 376.056 237.279 488.743 237.279 49.25 0 120.186-7.875 162.311-32.812 30.998-18.249 81.561-62.655 102.311-88.999C1018.683 878.398 1026.619 854.461 1023.244 831.117zM943.433 870.992c-28.875 36.749-44.061 46.218-80.248 68.154-27.998 17-77.123 22.438-126.436 22-126.373-1.125-263.121-40.25-444.12-216.247C166.352 622.12 99.291 517.029 74.009 390.999c-17.968-89.562-14.469-175.623 7-231.998 8-21 42.031-61.343 63.031-78.155 20-16 38.718-17.875 53.718 1.125l143.996 206.874c10 16 8.25 32.156-11.75 47.156L225.694 424.75c3.938 11.625 44.279 130.561 150.371 237.839 98.938 100.03 225.186 141.749 225.186 141.749l85-122.374c5-8 18.125-17.594 24.125-17.594 11.25 0 18.625 6 28.623 11l186.87 126.405c25.75 17.968 31.875 25.687 31.875 35.154C957.745 847.93 954.433 856.992 943.433 870.992z" />

</svg>
