<?xml version="1.0" encoding="utf-8"?>
<!DOCTYPE svg PUBLIC "-//W3C//DTD SVG 1.1//EN" "http://www.w3.org/Graphics/SVG/1.1/DTD/svg11.dtd">
<svg style="width:308px;height:308px;" version="1.1" id="图形" xmlns="http://www.w3.org/2000/svg" xmlns:xlink="http://www.w3.org/1999/xlink" x="0px" y="0px" width="1024px" height="1024px" viewBox="0 0 1024 1024" enable-background="new 0 0 1024 1024" xml:space="preserve">
  <path class="svgpath" data-index="path_0" fill="#272636" d="M512.3196 1.278402C229.905258 1.278402 0.958801 230.224859 0.958801 512.639201c0 282.414342 228.946457 511.360799 511.360799 511.360799 282.413064 0 511.360799-228.946457 511.360799-511.360799C1023.6804 230.224859 794.732664 1.278402 512.3196 1.278402zM623.113588 371.40774c0-30.286622 24.53637-54.789753 54.765463-54.789753 30.262332 0 54.797423 24.503131 54.797423 54.789753l0 73.050447c0 30.245713-24.535091 54.789753-54.797423 54.789753-30.229094 0-54.765463-24.510801-54.765463-54.789753L623.113588 371.40774zM294.367401 371.40774c0-30.286622 24.510801-54.789753 54.789753-54.789753s54.789753 24.503131 54.789753 54.789753l0 73.050447c0 30.245713-24.54404 54.789753-54.789753 54.789753-30.278951 0-54.789753-24.510801-54.789753-54.789753L294.367401 371.40774zM753.850647 794.604824c-15.780594 12.317403-38.38402 9.270971-50.536509-6.709054-48.205983-63.521238-121.181004-99.942911-200.165793-99.942911-78.169169 0-150.662232 35.790142-198.868215 98.211955-12.293114 15.930167-34.973243 18.709413-50.620884 6.257778-15.688549-12.435016-18.426886-35.355486-6.167011-51.251136 61.980764-80.249129 155.172434-126.276714 255.654831-126.276714 101.556255 0 195.371785 46.841928 257.344879 128.506247C772.644434 759.363116 769.64786 782.302762 753.850647 794.604824z" />

</svg>
