<?xml version="1.0" encoding="utf-8"?>
<!DOCTYPE svg PUBLIC "-//W3C//DTD SVG 1.1//EN" "http://www.w3.org/Graphics/SVG/1.1/DTD/svg11.dtd">
<svg style="width:308px;height:308px;" version="1.1" id="图形" xmlns="http://www.w3.org/2000/svg" xmlns:xlink="http://www.w3.org/1999/xlink" x="0px" y="0px" width="1024px" height="1024px" viewBox="0 0 1024 1024" enable-background="new 0 0 1024 1024" xml:space="preserve">
  <path class="svgpath" data-index="path_0" fill="#272636" d="M520.6528 51.2256C266.5984 51.2256 59.8784 257.92 59.8784 512s206.6944 460.7744 460.7744 460.7744c254.1056 0 460.8256-206.6944 460.8256-460.7744S774.7584 51.2256 520.6528 51.2256zM520.6528 934.3744c-232.9088 0-422.3744-189.4656-422.3744-422.3744S287.7696 89.6256 520.6528 89.6256c232.9344 0 422.4256 189.4656 422.4256 422.3744S753.5872 934.3744 520.6528 934.3744z" />
<path class="svgpath" data-index="path_1" fill="#272636" d="M739.7376 617.1648c-9.984-3.5584-20.9664 1.6128-24.5504 11.5968-29.3376 81.792-107.4432 136.7552-194.3808 136.7552-87.296 0-165.504-55.2704-194.6368-137.5232-3.5328-10.0096-14.4896-15.2064-24.5248-11.6992-9.984 3.5328-15.232 14.5152-11.6992 24.5248 34.5344 97.5616 127.3088 163.0976 230.8352 163.0976 103.0912 0 195.7376-65.1776 230.528-162.2016C754.9184 631.7568 749.7472 620.7488 739.7376 617.1648z" />
<path class="svgpath" data-index="path_2" fill="#272636" d="M351.3856 399.1552m-45.952 0a1.795 1.795 0 1 0 91.904 0 1.795 1.795 0 1 0 -91.904 0Z" />
<path class="svgpath" data-index="path_3" fill="#272636" d="M689.9712 399.1552m-45.952 0a1.795 1.795 0 1 0 91.904 0 1.795 1.795 0 1 0 -91.904 0Z" />

</svg>
