<?xml version="1.0" encoding="utf-8"?>
<!DOCTYPE svg PUBLIC "-//W3C//DTD SVG 1.1//EN" "http://www.w3.org/Graphics/SVG/1.1/DTD/svg11.dtd">
<svg style="width:308px;height:308px;" version="1.1" id="图形" xmlns="http://www.w3.org/2000/svg" xmlns:xlink="http://www.w3.org/1999/xlink" x="0px" y="0px" width="1024px" height="1024px" viewBox="0 0 1024 1024" enable-background="new 0 0 1024 1024" xml:space="preserve">
  <path class="svgpath" data-index="path_0" fill="#272636" d="M534.929 299.127c-63.609 0-115.378-51.743-115.378-115.355 0-63.585 51.77-115.355 115.378-115.355s115.355 51.744 115.355 115.355-51.744 115.355-115.355 115.355v0zM289.303 390.727c-58.096 0-105.384-47.265-105.384-105.385s47.288-105.385 105.384-105.385 105.385 47.265 105.385 105.385c0 58.094-47.289 105.385-105.385 105.385zM184.929 629.114c-51.252 0-92.929-41.676-92.929-92.928 0-51.228 41.677-92.904 92.929-92.904 51.228 0 92.903 41.678 92.903 92.904 0 51.252-41.677 92.929-92.903 92.928v0zM289.303 865.288c-43.448 0-78.799-35.349-78.799-78.8 0-43.448 35.374-78.798 78.799-78.798s78.799 35.349 78.799 78.798c0 43.45-35.35 78.8-78.799 78.8zM534.929 955.583c-37.958 0-68.829-30.87-68.829-68.829 0-37.96 30.87-68.828 68.829-68.828s68.828 30.868 68.828 68.828c0 37.959-30.869 68.829-68.828 68.829zM784.274 839.245c-30.623 0-55.561-24.912-55.561-55.56s24.938-55.56 55.561-55.56c30.623 0 55.559 24.911 55.559 55.56-0.001 30.647-24.937 55.56-55.559 55.56zM886.384 582.194c-25.134 0-45.59-20.456-45.59-45.59s20.456-45.591 45.59-45.591c25.134 0 45.616 20.456 45.616 45.591 0 25.133-20.483 45.59-45.616 45.59zM748.9 288.762c0 19.537 15.837 35.374 35.373 35.374s35.374-15.838 35.374-35.374c0-19.537-15.838-35.374-35.374-35.374s-35.373 15.836-35.373 35.374z" />

</svg>
