<?xml version="1.0" encoding="utf-8"?>
<!DOCTYPE svg PUBLIC "-//W3C//DTD SVG 1.1//EN" "http://www.w3.org/Graphics/SVG/1.1/DTD/svg11.dtd">
<svg style="width:308px;height:308px;" version="1.1" id="图形" xmlns="http://www.w3.org/2000/svg" xmlns:xlink="http://www.w3.org/1999/xlink" x="0px" y="0px" width="1024px" height="1024px" viewBox="0 0 1024 1024" enable-background="new 0 0 1024 1024" xml:space="preserve">
  <path class="svgpath" data-index="path_0" fill="#272636" d="M512 75.714426c-47.328935 0-85.700871 38.369889-85.700871 85.701894 0 47.325865 38.370913 85.694731 85.700871 85.694731 47.330982 0 85.700871-38.367843 85.700871-85.694731C597.699848 114.083292 559.329958 75.714426 512 75.714426z" />
<path class="svgpath" data-index="path_1" fill="#272636" d="M512 862.587773m-85.697801 0a83.746 83.746 0 1 0 171.395602 0 83.746 83.746 0 1 0 -171.395602 0Z" />
<path class="svgpath" data-index="path_2" fill="#272636" d="M862.585727 512m-85.700871 0a83.749 83.749 0 1 0 171.401742 0 83.749 83.749 0 1 0 -171.401742 0Z" />
<path class="svgpath" data-index="path_3" fill="#272636" d="M161.412227 512m-85.697801 0a83.746 83.746 0 1 0 171.395602 0 83.746 83.746 0 1 0 -171.395602 0Z" />
<path class="svgpath" data-index="path_4" fill="#272636" d="M820.501236 324.698127c33.466206-33.467229 33.466206-87.73111 0-121.19834-33.468253-33.466206-87.732134-33.469276-121.19834 0-33.466206 33.465183-33.465183 87.72804 0.00307 121.19527S787.03503 358.164333 820.501236 324.698127z" />
<path class="svgpath" data-index="path_5" fill="#272636" d="M264.094864 759.905136m-85.699848 0a83.748 83.748 0 1 0 171.399695 0 83.748 83.748 0 1 0 -171.399695 0Z" />
<path class="svgpath" data-index="path_6" fill="#272636" d="M759.90309 759.90309m-85.697801 0a83.746 83.746 0 1 0 171.395602 0 83.746 83.746 0 1 0 -171.395602 0Z" />
<path class="svgpath" data-index="path_7" fill="#272636" d="M264.095887 264.097934m-85.697801 0a83.746 83.746 0 1 0 171.395602 0 83.746 83.746 0 1 0 -171.395602 0Z" />

</svg>
