<?xml version="1.0" encoding="utf-8"?>
<!DOCTYPE svg PUBLIC "-//W3C//DTD SVG 1.1//EN" "http://www.w3.org/Graphics/SVG/1.1/DTD/svg11.dtd">
<svg style="width:308px;height:308px;" version="1.1" id="图形" xmlns="http://www.w3.org/2000/svg" xmlns:xlink="http://www.w3.org/1999/xlink" x="0px" y="0px" width="1024px" height="1024px" viewBox="0 0 1024 1024" enable-background="new 0 0 1024 1024" xml:space="preserve">
  <path class="svgpath" data-index="path_0" fill="#272636" d="M512 66.016q-91.008 0-173.504 35.488t-142.016 95.008-95.008 142.016-35.488 173.504q0 60.992 16 118.496t44.992 106.496 70.016 90.016 90.016 70.016 106.496 44.992 118.496 16q91.008 0 173.504-35.488t142.016-95.008 95.008-142.016 35.488-173.504-35.488-173.504-95.008-142.016-142.016-95.008-173.504-35.488zM727.008 438.016l-256 259.008 0 0.992q-2.016 2.016-6.016 4-0.992 0-1.504 0.512t-1.504 0.992-2.016 1.504q-6.016 2.016-12 2.016t-12-2.016l-2.016-2.016q-0.992 0-0.992-0.992-6.016-3.008-7.008-4l0-0.992-0.992 0-126.016-128.992q-6.016-6.016-8-14.496t0.512-16.512 8.512-15.008q8.992-8.992 22.496-8.512t22.496 9.504l103.008 106.016 234.016-236q8.992-8.992 22.496-8.992t22.496 8.992 9.504 22.496-9.504 22.496z" />

</svg>
