<?xml version="1.0" encoding="utf-8"?>
<!DOCTYPE svg PUBLIC "-//W3C//DTD SVG 1.1//EN" "http://www.w3.org/Graphics/SVG/1.1/DTD/svg11.dtd">
<svg style="width:308px;height:308px;" version="1.1" id="图形" xmlns="http://www.w3.org/2000/svg" xmlns:xlink="http://www.w3.org/1999/xlink" x="0px" y="0px" width="1024px" height="1024px" viewBox="0 0 1024 1024" enable-background="new 0 0 1024 1024" xml:space="preserve">
  <path class="svgpath" data-index="path_0" fill="#272636" d="M512.606475 0.886232c-211.566739 0-383.667663 176.191381-383.667663 392.597927 0 203.106067 246.224717 630.51584 383.667663 630.51584 130.886625 0 383.667663-427.408774 383.667663-630.51584C896.274138 177.077613 724.173213 0.886232 512.606475 0.886232zM512.606475 960.056389c-80.055655 0-319.723052-373.988047-319.723052-551.710103 0-189.335995 143.375806-343.514444 319.723052-343.514444 176.347246 0 319.723052 154.178449 319.723052 343.514444C832.329527 586.067342 591.28832 960.056389 512.606475 960.056389z" />
<path class="svgpath" data-index="path_1" fill="#272636" d="M516.727905 230.905987c-88.173623 0-159.861526 71.749849-159.861526 159.861526 0 88.173623 71.687903 159.8915 159.861526 159.8915 88.111677 0 159.861526-71.717877 159.861526-159.8915C676.589431 302.656835 604.838582 230.905987 516.727905 230.905987zM516.727905 486.684429c-52.954131 0-95.916916-43.058702-95.916916-95.947889 0-52.860212 42.962785-95.885943 95.916916-95.885943 52.829239 0 95.916916 43.024732 95.916916 95.885943C612.64482 443.627725 569.557143 486.684429 516.727905 486.684429z" />

</svg>
