<?xml version="1.0" encoding="utf-8"?>
<!DOCTYPE svg PUBLIC "-//W3C//DTD SVG 1.1//EN" "http://www.w3.org/Graphics/SVG/1.1/DTD/svg11.dtd">
<svg style="width:308px;height:308px;" version="1.1" id="图形" xmlns="http://www.w3.org/2000/svg" xmlns:xlink="http://www.w3.org/1999/xlink" x="0px" y="0px" width="1025px" height="1024px" viewBox="0 0 1025 1024" enable-background="new 0 0 1025 1024" xml:space="preserve">
  <path class="svgpath" data-index="path_0" fill="#272636" d="M1005.726 212.299c-24.438-68.373-71.372-121.81-132.122-150.528-40.811-19.343-86.686-29.53-132.558-29.53-93.562 0-181.061 41.779-229.559 108.029C462.862 74.676 375.958 33.46 282.961 33.46c-45.875 0-91.623 10.219-132.466 29.436C89.686 91.614 42.749 145.051 18.341 213.361-9.721 291.702-5.376 383.2 29.966 458.106 107.901 623.32 471.112 969.25 486.612 982.812c7.125 6.312 16 9.405 25 9.405 8.875 0 17.75-3.093 24.998-9.405 15.438-13.625 379.492-360.806 457.365-526.019C1029.351 382.044 1033.726 290.609 1005.726 212.299zM924.979 461.231c-62.998 120.997-383.492 441.177-396.99 452.989-6.375 5.469-9 9-16.375 9-7.812 0-11.625-3-15.625-7-12.688-12.688-322.993-320.992-393.992-458.99-32.904-63.938-49.998-142.998-29.998-205.995C123.371 89.364 271.461 97.332 311.586 97.301c71.404-0.062 146.777 66.998 200.401 119.935 12.375-17.938 103.997-113.998 200.434-120.998 54.561-3.969 194.994 5.188 239.558 151.998C968.979 304.234 964.854 384.669 924.979 461.231z" />

</svg>
